<svg width="302" height="300" viewBox="0 0 302 300" fill="none" xmlns="http://www.w3.org/2000/svg">
<path vector-effect="non-scaling-stroke" d="M281.436 85.9025L281.436 85.9029C293.016 99.86 298.903 115.975 300.648 134.03V134.07V134.09L300.65 134.111C302.275 150.937 301.372 167.519 297.642 183.859L297.641 183.86C293.024 204.214 280.614 219.371 263.368 230.651L263.367 230.651C248.835 240.203 237.03 252.233 227.227 266.491C215.053 284.153 197.663 293.622 176.813 297.401C168.03 298.963 159.187 299.684 150.284 299.563H150.281C134.916 299.443 119.835 297.938 105.609 291.945C93.3616 286.791 82.9288 279.065 75.136 268.173C62.9745 251.077 47.9742 237.13 31.1744 224.701L31.174 224.7C13.0059 211.29 4.1799 192.312 1.71583 170.05C-0.0905963 153.578 0.151111 137.293 3.15949 121.074L3.15964 121.073C6.94071 100.46 17.6172 84.0516 35.0221 72.2469C49.3699 62.5156 61.2324 50.3685 71.1545 36.2339C86.4634 14.5961 107.526 3.50728 133.843 1.10764L133.844 1.10759C150.092 -0.394508 166.043 0.626553 181.938 3.6923L181.938 3.69237C200.655 7.28617 215.648 17.1044 226.689 32.3822C236.602 46.1414 247.673 58.5263 261.233 68.7405L261.488 68.402L261.233 68.7405C262.423 69.6365 263.618 70.5191 264.811 71.3997C270.786 75.8096 276.692 80.1687 281.436 85.9025Z" fill="#EBE6DA" stroke="black" stroke-width="0.847458"/>
</svg>
