<svg width="19" height="15" viewBox="0 0 19 15" fill="none" xmlns="http://www.w3.org/2000/svg">
<path d="M18.3731 7.89761L11.4788 14.7919C11.3733 14.8974 11.2303 14.9567 11.0811 14.9567C10.9319 14.9567 10.7888 14.8974 10.6833 14.7919C10.5778 14.6864 10.5186 14.5433 10.5186 14.3941C10.5186 14.245 10.5778 14.1019 10.6833 13.9964L16.6177 8.06201L1.0048 8.06201C0.859139 8.05687 0.721165 7.99539 0.619939 7.89053C0.518713 7.78567 0.462141 7.64561 0.462141 7.49986C0.462141 7.35411 0.518713 7.21405 0.619939 7.10919C0.721164 7.00433 0.859141 6.94285 1.0048 6.93771L16.6177 6.93771L10.6833 1.00332C10.5778 0.897826 10.5186 0.754752 10.5186 0.605568C10.5186 0.456383 10.5778 0.313309 10.6833 0.20782C10.7888 0.102331 10.9319 0.0430679 11.0811 0.0430679C11.2303 0.0430679 11.3733 0.102331 11.4788 0.20782L18.3731 7.10211C18.4786 7.2076 18.5379 7.35068 18.5379 7.49986C18.5379 7.64904 18.4786 7.79212 18.3731 7.89761Z" fill="#1B0F01"/>
</svg>
