<svg width="15" height="14" viewBox="0 0 15 14" fill="none" xmlns="http://www.w3.org/2000/svg">
<path d="M14.0643 1V10.75C14.0643 10.8992 14.0051 11.0423 13.8996 11.1477C13.7941 11.2532 13.651 11.3125 13.5018 11.3125C13.3527 11.3125 13.2096 11.2532 13.1041 11.1477C12.9986 11.0423 12.9393 10.8992 12.9393 10.75V2.3575L1.89934 13.3975C1.79271 13.4969 1.65167 13.551 1.50595 13.5484C1.36022 13.5458 1.22118 13.4868 1.11812 13.3837C1.01506 13.2807 0.956028 13.1416 0.953457 12.9959C0.950886 12.8502 1.00498 12.7091 1.10434 12.6025L12.1443 1.5625H3.75184C3.60265 1.5625 3.45958 1.50324 3.35409 1.39775C3.2486 1.29226 3.18934 1.14918 3.18934 1C3.18934 0.850816 3.2486 0.707742 3.35409 0.602252C3.45958 0.496763 3.60265 0.4375 3.75184 0.4375H13.5018C13.651 0.4375 13.7941 0.496763 13.8996 0.602252C14.0051 0.707742 14.0643 0.850816 14.0643 1Z" fill="#1B0F01"/>
</svg>
