<svg width="14" height="14" viewBox="0 0 14 14" fill="none" xmlns="http://www.w3.org/2000/svg">
<path d="M13.5641 1V10.75C13.5641 10.8992 13.5048 11.0423 13.3993 11.1477C13.2939 11.2532 13.1508 11.3125 13.0016 11.3125C12.8524 11.3125 12.7093 11.2532 12.6038 11.1477C12.4984 11.0423 12.4391 10.8992 12.4391 10.75V2.3575L1.39909 13.3975C1.29246 13.4969 1.15143 13.551 1.0057 13.5484C0.859976 13.5458 0.720937 13.4868 0.617877 13.3837C0.514818 13.2807 0.455784 13.1416 0.453213 12.9959C0.450641 12.8502 0.504734 12.7091 0.604094 12.6025L11.6441 1.5625H3.25159C3.10241 1.5625 2.95934 1.50324 2.85385 1.39775C2.74836 1.29226 2.68909 1.14918 2.68909 1C2.68909 0.850816 2.74836 0.707742 2.85385 0.602252C2.95934 0.496763 3.10241 0.4375 3.25159 0.4375H13.0016C13.1508 0.4375 13.2939 0.496763 13.3993 0.602252C13.5048 0.707742 13.5641 0.850816 13.5641 1Z" fill="#DEDCAF"/>
</svg>
