<svg width="23" height="20" viewBox="0 0 23 20" fill="none" xmlns="http://www.w3.org/2000/svg">
<path d="M14 1.02411V18.9716C14.0023 19.1059 13.9697 19.2385 13.9055 19.3565C13.8412 19.4745 13.7475 19.5738 13.6334 19.6447C13.5038 19.7218 13.354 19.7581 13.2035 19.7487C13.0529 19.7393 12.9087 19.6848 12.7897 19.5922L6.6425 14.811C6.59793 14.7758 6.56195 14.7309 6.53726 14.6797C6.51258 14.6286 6.49984 14.5725 6.5 14.5157V5.48567C6.50017 5.42864 6.51335 5.37239 6.53853 5.32122C6.56371 5.27005 6.60023 5.22529 6.64531 5.19036L12.7925 0.409108C12.9272 0.304717 13.0935 0.249323 13.2639 0.252049C13.4343 0.254776 13.5987 0.31546 13.73 0.424108C13.8162 0.498201 13.8851 0.590358 13.9318 0.694046C13.9785 0.797735 14.0017 0.910418 14 1.02411ZM4.625 5.50067H2C1.60218 5.50067 1.22064 5.65871 0.93934 5.94001C0.658035 6.22132 0.5 6.60285 0.5 7.00067V13.0007C0.5 13.3985 0.658035 13.78 0.93934 14.0613C1.22064 14.3426 1.60218 14.5007 2 14.5007H4.625C4.72446 14.5007 4.81984 14.4612 4.89016 14.3908C4.96049 14.3205 5 14.2251 5 14.1257V5.87567C5 5.77621 4.96049 5.68083 4.89016 5.61051C4.81984 5.54018 4.72446 5.50067 4.625 5.50067ZM16.5097 7.45442C16.4356 7.5195 16.3751 7.59855 16.3316 7.68704C16.2882 7.77552 16.2625 7.87172 16.2563 7.97011C16.25 8.06851 16.2632 8.16717 16.2951 8.26046C16.327 8.35375 16.377 8.43984 16.4422 8.5138C16.8039 8.92464 17.0035 9.45327 17.0035 10.0007C17.0035 10.5481 16.8039 11.0767 16.4422 11.4875C16.3752 11.5611 16.3236 11.6473 16.2902 11.741C16.2569 11.8348 16.2425 11.9342 16.248 12.0335C16.2535 12.1329 16.2786 12.2301 16.322 12.3196C16.3655 12.4091 16.4262 12.4891 16.5009 12.5549C16.5755 12.6207 16.6625 12.671 16.7567 12.7029C16.851 12.7347 16.9506 12.7475 17.0498 12.7405C17.1491 12.7335 17.2459 12.7068 17.3347 12.6619C17.4236 12.6171 17.5026 12.5551 17.5672 12.4794C18.1704 11.7946 18.5032 10.9133 18.5032 10.0007C18.5032 9.08805 18.1704 8.20674 17.5672 7.52192C17.5021 7.44772 17.423 7.3871 17.3344 7.34354C17.2459 7.29997 17.1496 7.27432 17.051 7.26805C16.9525 7.26177 16.8538 7.27501 16.7604 7.30699C16.667 7.33897 16.5809 7.38907 16.5069 7.45442H16.5097ZM20.3431 5.00098C20.2786 4.92385 20.1992 4.86048 20.1097 4.81465C20.0202 4.76882 19.9223 4.74146 19.822 4.7342C19.7217 4.72695 19.621 4.73994 19.5258 4.7724C19.4306 4.80487 19.3429 4.85615 19.2679 4.92319C19.193 4.99024 19.1323 5.07167 19.0894 5.16266C19.0465 5.25364 19.0224 5.35231 19.0185 5.45281C19.0145 5.5533 19.0308 5.65356 19.0664 5.74763C19.102 5.84169 19.1561 5.92764 19.2256 6.00036C20.2097 7.10044 20.7538 8.52466 20.7538 10.0007C20.7538 11.4767 20.2097 12.9009 19.2256 14.001C19.1561 14.0737 19.102 14.1596 19.0664 14.2537C19.0308 14.3478 19.0145 14.448 19.0185 14.5485C19.0224 14.649 19.0465 14.7477 19.0894 14.8387C19.1323 14.9297 19.193 15.0111 19.2679 15.0781C19.3429 15.1452 19.4306 15.1965 19.5258 15.2289C19.621 15.2614 19.7217 15.2744 19.822 15.2671C19.9223 15.2599 20.0202 15.2325 20.1097 15.1867C20.1992 15.1409 20.2786 15.0775 20.3431 15.0004C21.5728 13.6253 22.2527 11.8454 22.2527 10.0007C22.2527 8.15598 21.5728 6.376 20.3431 5.00098Z" fill="#341F05"/>
</svg>
