<svg width="23" height="20" viewBox="0 0 23 20" fill="none" xmlns="http://www.w3.org/2000/svg">
<path d="M21.8729 11.8768C22.0136 12.0176 22.0927 12.2084 22.0927 12.4075C22.0927 12.6065 22.0136 12.7974 21.8729 12.9381C21.7322 13.0788 21.5413 13.1579 21.3423 13.1579C21.1433 13.1579 20.9524 13.0788 20.8117 12.9381L19.0923 11.2178L17.3729 12.9381C17.2322 13.0788 17.0413 13.1579 16.8423 13.1579C16.6433 13.1579 16.4524 13.0788 16.3117 12.9381C16.1709 12.7974 16.0919 12.6065 16.0919 12.4075C16.0919 12.2084 16.1709 12.0176 16.3117 11.8768L18.032 10.1575L16.3117 8.4381C16.1709 8.29736 16.0919 8.10649 16.0919 7.90747C16.0919 7.70845 16.1709 7.51757 16.3117 7.37684C16.4524 7.23611 16.6433 7.15705 16.8423 7.15705C17.0413 7.15705 17.2322 7.23611 17.3729 7.37684L19.0923 9.09716L20.8117 7.37684C20.9524 7.23611 21.1433 7.15705 21.3423 7.15705C21.5413 7.15705 21.7322 7.23611 21.8729 7.37685C22.0136 7.51758 22.0927 7.70845 22.0927 7.90747C22.0927 8.10649 22.0136 8.29736 21.8729 8.4381L20.1526 10.1575L21.8729 11.8768ZM4.46729 5.65747H1.84229C1.44446 5.65747 1.06293 5.81551 0.781625 6.09681C0.50032 6.37811 0.342285 6.75964 0.342285 7.15747V13.1575C0.342285 13.5553 0.50032 13.9368 0.781625 14.2181C1.06293 14.4994 1.44446 14.6575 1.84229 14.6575H4.46729C4.56674 14.6575 4.66212 14.618 4.73245 14.5476C4.80278 14.4773 4.84229 14.3819 4.84229 14.2825V6.03247C4.84229 5.93301 4.80278 5.83763 4.73245 5.7673C4.66212 5.69698 4.56674 5.65747 4.46729 5.65747ZM13.5751 0.580907C13.4438 0.47226 13.2794 0.411575 13.109 0.408848C12.9386 0.406122 12.7723 0.461516 12.6376 0.565907L6.49041 5.34716C6.44481 5.3818 6.40775 5.42643 6.38207 5.47762C6.3564 5.52881 6.34279 5.5852 6.34229 5.64247V14.6725C6.34245 14.7295 6.35563 14.7857 6.38081 14.8369C6.40599 14.8881 6.44251 14.9329 6.4876 14.9678L12.6348 19.749C12.7538 19.8416 12.898 19.8961 13.0486 19.9055C13.1991 19.9149 13.3489 19.8786 13.4785 19.8015C13.5926 19.7306 13.6863 19.6313 13.7506 19.5133C13.8148 19.3953 13.8474 19.2627 13.8451 19.1284V1.18091C13.8465 1.067 13.8228 0.954176 13.7756 0.850473C13.7285 0.74677 13.659 0.654733 13.5723 0.580907H13.5751Z" fill="#DEDCAF"/>
</svg>
